<svg id="Layer_1" data-name="Layer 1" xmlns="http://www.w3.org/2000/svg" viewBox="0 0 145.92 73.21"><defs><style>.cls-1{fill:#231f20;}</style></defs><path class="cls-1" d="M133.68,38a8.37,8.37,0,0,1-5.92,14.29H81.87a5.38,5.38,0,0,0-5.38,5.39v7.17a8.37,8.37,0,0,1-9.19,8.33,8.62,8.62,0,0,1-7.55-8.69V57.67a5.38,5.38,0,0,0-5.38-5.39H8.49a8.37,8.37,0,1,1,0-16.74H54.37a5.39,5.39,0,0,0,5.39-5.39V23a8.36,8.36,0,0,1,9.18-8.33,8.61,8.61,0,0,1,7.55,8.69v6.81a5.39,5.39,0,0,0,5.39,5.39h45.88A8.37,8.37,0,0,1,133.68,38Zm10.88-26.43a6.13,6.13,0,0,1,1.23,5.12,6.2,6.2,0,0,1-6.14,4.81H121.26a1.85,1.85,0,0,0-1.85,1.83V24.7a6.08,6.08,0,0,1-6.1,6.09,5.63,5.63,0,0,1-.58,0,6.23,6.23,0,0,1-5.51-6.23V23.35a1.84,1.84,0,0,0-1.84-1.84l-18.56,0a6.12,6.12,0,0,1-6-7.38A6.22,6.22,0,0,1,87,9.3h18.39a1.83,1.83,0,0,0,1.84-1.83V6.1A6.11,6.11,0,0,1,113.91,0a6.21,6.21,0,0,1,5.5,6.23V7.44a1.84,1.84,0,0,0,1.84,1.84l18.57,0A6.09,6.09,0,0,1,144.56,11.56Z"/></svg>